<svg xmlns="http://www.w3.org/2000/svg" version="1.1" xmlns:xlink="http://www.w3.org/1999/xlink"
   xmlns:svgjs="http://svgjs.dev/svgjs" width="1500" height="1500" viewBox="0 0 1500 1500">
   <rect width="1500" height="1500" fill="#000000"></rect>
   <g
      transform="matrix(0.6666666666666666,0,0,0.6666666666666666,249.39393939393938,435.99032258064517)">
      <svg viewBox="0 0 396 248" data-background-color="#fcfcfc" preserveAspectRatio="xMidYMid meet"
         height="939" width="1500" xmlns="http://www.w3.org/2000/svg"
         xmlns:xlink="http://www.w3.org/1999/xlink">
         <g id="tight-bounds" transform="matrix(1,0,0,1,0.2400000000000091,0.4000000000000057)">
            <svg viewBox="0 0 395.52 247.2" height="247.2" width="395.52">
               <g>
                  <svg></svg>
               </g>
               <g>
                  <svg viewBox="0 0 395.52 247.2" height="247.2" width="395.52">
                     <g transform="matrix(1,0,0,1,153.0203314285714,47.215199999999996)">
                        <svg viewBox="0 0 89.47933714285715 152.7696" height="152.7696"
                           width="89.47933714285715">
                           <g>
                              <svg viewBox="0 0 89.47933714285715 152.7696" height="152.7696"
                                 width="89.47933714285715">
                                 <g>
                                    <svg viewBox="0 0 89.47933714285715 152.7696" height="152.7696"
                                       width="89.47933714285715">
                                       <g id="textblocktransform">
                                          <svg viewBox="0 0 89.47933714285715 152.7696"
                                             height="152.7696" width="89.47933714285715"
                                             id="textblock">
                                             <g>
                                                <svg viewBox="0 0 89.47933714285715 152.7696"
                                                   height="152.7696" width="89.47933714285715">
                                                   <g transform="matrix(1,0,0,1,0,0)">
                                                      <svg width="89.47933714285715"
                                                         viewBox="1.7999999999999998 -28 16.4 28"
                                                         height="152.7696"
                                                         data-palette-color="#08b2e5">
                                                         <path
                                                            d="M18-24Q18.2-23.2 18.2-22L18.2-22Q18.2-20.85 18-20L18-20Q18.2-19.2 18.2-18L18.2-18Q18.2-16.85 18-16L18-16 16.5-16Q16.7-15.2 16.7-14L16.7-14Q16.7-12.85 16.5-12L16.5-12 15-12Q15.2-11.2 15.2-10L15.2-10Q15.2-8.85 15-8L15-8 14-8Q14.2-7.2 14.2-6L14.2-6Q14.2-4.85 14-4L14-4 12-4Q12.2-3.2 12.2-2L12.2-2Q12.2-0.85 12 0L12 0 8 0Q7.8-0.85 7.8-2L7.8-2Q7.8-3.2 8-4L8-4 6-4Q5.8-4.85 5.8-6L5.8-6Q5.8-7.2 6-8L6-8 5-8Q4.8-8.85 4.8-10L4.8-10Q4.8-11.2 5-12L5-12 3.5-12Q3.3-12.85 3.3-14L3.3-14Q3.3-15.2 3.5-16L3.5-16 2-16Q1.8-16.85 1.8-18L1.8-18Q1.8-19.2 2-20L2-20Q1.8-20.85 1.8-22L1.8-22Q1.8-23.2 2-24L2-24Q1.8-24.85 1.8-26L1.8-26Q1.8-27.2 2-28L2-28 6-28Q6.2-27.2 6.2-26L6.2-26Q6.2-24.85 6-24L6-24Q6.2-23.2 6.2-22L6.2-22Q6.2-20.85 6-20L6-20Q6.2-19.2 6.2-18L6.2-18Q6.2-16.85 6-16L6-16 7.5-16Q7.7-15.2 7.7-14L7.7-14Q7.7-12.85 7.5-12L7.5-12 9-12Q9.2-11.2 9.2-10L9.2-10Q9.2-8.85 9-8L9-8 11-8Q10.8-8.85 10.8-10L10.8-10Q10.8-11.2 11-12L11-12 12.5-12Q12.3-12.85 12.3-14L12.3-14Q12.3-15.2 12.5-16L12.5-16 14-16Q13.8-16.85 13.8-18L13.8-18Q13.8-19.2 14-20L14-20Q13.8-20.85 13.8-22L13.8-22Q13.8-23.2 14-24L14-24Q13.8-24.85 13.8-26L13.8-26Q13.8-27.2 14-28L14-28 18-28Q18.2-27.2 18.2-26L18.2-26Q18.2-24.85 18-24L18-24Z"
                                                            opacity="1"
                                                            transform="matrix(1,0,0,1,0,0)"
                                                            fill="#ffffff" class="wordmark-text-0"
                                                            data-fill-palette-color="primary"
                                                            id="text-0"></path>
                                                      </svg>
                                                   </g>
                                                </svg>
                                             </g>
                                          </svg>
                                       </g>
                                    </svg>
                                 </g>
                              </svg>
                           </g>
                        </svg>
                     </g>
                     <path
                        d="M335.322 41.215L335.322 0 88.122 0 88.122 247.2 335.322 247.2 335.322 205.985 321.545 205.985 321.545 233.423 101.899 233.423 101.899 13.777 321.545 13.777 321.545 41.215Z"
                        fill="#ffffff" stroke="transparent" data-fill-palette-color="tertiary"></path>
                  </svg>
               </g>
               <defs></defs>
            </svg>
            <rect width="395.52" height="247.2" fill="none" stroke="none" visibility="hidden"></rect>
         </g>
      </svg>
   </g>
</svg>